<svg width="208" height="208" viewBox="0 0 208 208" fill="none" xmlns="http://www.w3.org/2000/svg">
<g opacity="0.1">
<path d="M128.763 104C128.763 117.676 117.677 128.762 104.001 128.762C90.3259 128.762 79.2396 117.676 79.2396 104C79.2396 90.3244 90.3259 79.2381 104.001 79.2381C117.677 79.2381 128.763 90.3244 128.763 104Z" fill="white"/>
<path fill-rule="evenodd" clip-rule="evenodd" d="M104.001 208C156.395 208 199.739 169.257 206.948 118.857H146.037C139.918 136.169 123.408 148.571 104.001 148.571C84.5948 148.571 68.085 136.169 61.9663 118.857H1.05469C8.26381 169.257 51.6082 208 104.001 208ZM61.9663 89.1429H1.05469C8.26381 38.7431 51.6082 0 104.001 0C156.395 0 199.739 38.7431 206.948 89.1429H146.037C139.918 71.8314 123.408 59.4286 104.001 59.4286C84.5948 59.4286 68.085 71.8314 61.9663 89.1429ZM128.763 104C128.763 117.676 117.677 128.762 104.001 128.762C90.3259 128.762 79.2396 117.676 79.2396 104C79.2396 90.3244 90.3259 79.2381 104.001 79.2381C117.677 79.2381 128.763 90.3244 128.763 104Z" fill="white"/>
</g>
</svg>
